<svg width="24" height="24" viewBox="0 0 24 24" fill="none" xmlns="http://www.w3.org/2000/svg">
<path d="M10.7295 0.503906C13.4186 0.431887 16.0328 1.39351 18.0342 3.19043C20.0354 4.98733 21.272 7.48265 21.4883 10.1631C21.7045 12.8437 20.8838 15.5053 19.1963 17.5996L18.9141 17.9502L19.2334 18.2676L23.3066 22.3252C23.4307 22.457 23.5 22.6313 23.5 22.8125C23.5 22.9939 23.4301 23.168 23.3057 23.2998C23.1756 23.4277 23.0009 23.5 22.8184 23.5C22.6809 23.5 22.5475 23.4595 22.4346 23.3848L22.3291 23.2988L18.2725 19.2275L17.9551 18.9092L17.6045 19.1914C15.5096 20.8784 12.8474 21.6986 10.166 21.4824C7.4846 21.2662 4.98787 20.0302 3.19043 18.0293C1.39312 16.0285 0.431837 13.4148 0.503906 10.7266C0.576041 8.03836 1.67616 5.47978 3.57812 3.57812C5.48032 1.67643 8.0403 0.57603 10.7295 0.503906ZM19 10.9619C18.9956 8.84984 18.1549 6.82548 16.6611 5.33203C15.1683 3.83962 13.1451 2.99875 11.0342 2.99316H11.0283C10.8085 2.99113 10.5904 3.03252 10.3867 3.11523C10.1807 3.19889 9.99316 3.32329 9.83594 3.48047C9.67894 3.6375 9.55532 3.82458 9.47168 4.03027C9.38807 4.23601 9.34571 4.45666 9.34863 4.67871C9.35441 5.12062 9.53317 5.543 9.8457 5.85547C10.1582 6.16793 10.5805 6.34579 11.0225 6.35156H11.0273C12.2497 6.35534 13.4208 6.84303 14.2852 7.70703C15.0956 8.5173 15.5751 9.59741 15.6348 10.7363L15.6406 10.9648C15.6411 11.4095 15.8183 11.8359 16.1328 12.1504C16.4477 12.4652 16.875 12.6425 17.3203 12.6426C17.7658 12.6426 18.1938 12.4653 18.5088 12.1504C18.8237 11.8355 19 11.4082 19 10.9629V10.9619Z" fill="white" stroke="black"/>
</svg>
